<svg width="100" height="100" viewBox="0 0 100 100" fill="none" xmlns="http://www.w3.org/2000/svg">
<path d="M37.5007 20.8335H29.1673C26.9572 20.8335 24.8376 21.7115 23.2748 23.2743C21.712 24.8371 20.834 26.9567 20.834 29.1668V79.1668C20.834 81.377 21.712 83.4966 23.2748 85.0594C24.8376 86.6222 26.9572 87.5002 29.1673 87.5002H70.834C73.0441 87.5002 75.1637 86.6222 76.7265 85.0594C78.2893 83.4966 79.1673 81.377 79.1673 79.1668V29.1668C79.1673 26.9567 78.2893 24.8371 76.7265 23.2743C75.1637 21.7115 73.0441 20.8335 70.834 20.8335H62.5006" stroke="#00FFC2" stroke-width="8.33333" stroke-linecap="round" stroke-linejoin="round"/>
<path d="M54.1667 12.5H45.8333C41.231 12.5 37.5 16.231 37.5 20.8333C37.5 25.4357 41.231 29.1667 45.8333 29.1667H54.1667C58.769 29.1667 62.5 25.4357 62.5 20.8333C62.5 16.231 58.769 12.5 54.1667 12.5Z" stroke="#00FFC2" stroke-width="8.33333" stroke-linecap="round" stroke-linejoin="round"/>
<path d="M41.666 58.3335H58.3327" stroke="#00FFC2" stroke-width="8.33333" stroke-linecap="round" stroke-linejoin="round"/>
<path d="M50 50V66.6667" stroke="#00FFC2" stroke-width="8.33333" stroke-linecap="round" stroke-linejoin="round"/>
</svg>
