<svg width="100" height="100" viewBox="0 0 100 100" fill="none" xmlns="http://www.w3.org/2000/svg">
<path d="M37.4993 16.6665H20.8327C18.5315 16.6665 16.666 18.532 16.666 20.8332V37.4998C16.666 39.801 18.5315 41.6665 20.8327 41.6665H37.4993C39.8005 41.6665 41.666 39.801 41.666 37.4998V20.8332C41.666 18.532 39.8005 16.6665 37.4993 16.6665Z" stroke="#00FFC2" stroke-width="8.33333" stroke-linecap="round" stroke-linejoin="round"/>
<path d="M37.4993 58.3335H20.8327C18.5315 58.3335 16.666 60.199 16.666 62.5002V79.1668C16.666 81.468 18.5315 83.3335 20.8327 83.3335H37.4993C39.8005 83.3335 41.666 81.468 41.666 79.1668V62.5002C41.666 60.199 39.8005 58.3335 37.4993 58.3335Z" stroke="#00FFC2" stroke-width="8.33333" stroke-linecap="round" stroke-linejoin="round"/>
<path d="M79.1673 58.3335H62.5007C60.1995 58.3335 58.334 60.199 58.334 62.5002V79.1668C58.334 81.468 60.1995 83.3335 62.5007 83.3335H79.1673C81.4685 83.3335 83.334 81.468 83.334 79.1668V62.5002C83.334 60.199 81.4685 58.3335 79.1673 58.3335Z" stroke="#00FFC2" stroke-width="8.33333" stroke-linecap="round" stroke-linejoin="round"/>
<path d="M58.334 29.1665H83.334" stroke="#00FFC2" stroke-width="8.33333" stroke-linecap="round" stroke-linejoin="round"/>
<path d="M70.834 16.6665V41.6665" stroke="#00FFC2" stroke-width="8.33333" stroke-linecap="round" stroke-linejoin="round"/>
</svg>
