<svg width="100" height="100" viewBox="0 0 100 100" fill="none" xmlns="http://www.w3.org/2000/svg">
<path d="M12.5 87.4998V70.8332C12.5 67.5368 13.4775 64.3145 15.3088 61.5737C17.1402 58.8329 19.7432 56.6966 22.7886 55.4352C25.834 54.1737 29.1852 53.8437 32.4182 54.4868C35.6512 55.1298 38.6209 56.7172 40.9518 59.0481C43.2827 61.3789 44.87 64.3487 45.5131 67.5817C46.1562 70.8147 45.8261 74.1658 44.5647 77.2112C43.3032 80.2567 41.167 82.8596 38.4262 84.691C35.6853 86.5224 32.463 87.4998 29.1667 87.4998H12.5Z" stroke="#00FFC2" stroke-width="8.33333" stroke-linecap="round" stroke-linejoin="round"/>
<path d="M87.5013 12.5C75.6089 14.1267 64.3762 18.9339 54.989 26.4143C45.6018 33.8948 38.4084 43.7708 34.168 55" stroke="#00FFC2" stroke-width="8.33333" stroke-linecap="round" stroke-linejoin="round"/>
<path d="M87.499 12.5C85.8724 24.3924 81.0651 35.6251 73.5847 45.0123C66.1043 54.3995 56.2282 61.5929 44.999 65.8333" stroke="#00FFC2" stroke-width="8.33333" stroke-linecap="round" stroke-linejoin="round"/>
<path d="M44.165 37.5C52.2616 41.2369 58.7614 47.7368 62.4984 55.8333" stroke="#00FFC2" stroke-width="8.33333" stroke-linecap="round" stroke-linejoin="round"/>
</svg>
